<?xml version="1.0" encoding="UTF-8"?>
<svg width="1085px" height="837px" viewBox="0 0 1085 837" version="1.1" xmlns="http://www.w3.org/2000/svg" xmlns:xlink="http://www.w3.org/1999/xlink"><title>ko</title><desc>Created with Sketch.</desc><g id="ko" stroke="none" stroke-width="1" fill="none" fill-rule="evenodd"><path d="M194.727078,0 L890.272922,0 C957.98377,0 982.537359,7.05010505 1007.29143,20.2887285 C1032.04551,33.527352 1051.47265,52.9544938 1064.71127,77.7085675 C1077.94989,102.462641 1085,127.01623 1085,194.727078 L1085,642.272922 C1085,709.98377 1077.94989,734.537359 1064.71127,759.291433 C1051.47265,784.045506 1032.04551,803.472648 1007.29143,816.711271 C982.537359,829.949895 957.98377,837 890.272922,837 L194.727078,837 C127.01623,837 102.462641,829.949895 77.7085675,816.711271 C52.9544938,803.472648 33.527352,784.045506 20.2887285,759.291433 C7.05010505,734.537359 0,709.98377 0,642.272922 L0,194.727078 C0,127.01623 7.05010505,102.462641 20.2887285,77.7085675 C33.527352,52.9544938 52.9544938,33.527352 77.7085675,20.2887285 C102.462641,7.05010505 127.01623,0 194.727078,0 Z" id="Rectangle-3" fill="#EEEEEE"/><circle id="Oval-19" fill="#FF4B4B" fill-rule="nonzero" cx="542.5" cy="418.5" r="201.5"/><path d="M341.147471,426.281034 C375.616537,462.26299 409.561927,480.253968 442.983643,480.253968 C476.45302,480.253968 509.772092,462.21164 542.940857,426.126984 C573.267853,390.042328 605.929107,372 640.924622,372 C674.662906,372 709.009613,388.769257 743.964742,422.30777 C741.934856,531.835981 652.513333,620 542.5,620 C433.820147,620 345.23594,533.960314 341.147471,426.281034 Z" id="Path" fill="#1CB0F6" fill-rule="nonzero"/><path d="M264.338822,738.349935 L128.037384,602.357571 C120.083643,594.421865 120.069022,581.540923 128.004727,573.587182 C135.940433,565.633441 148.821375,565.61882 156.775116,573.554526 L293.076554,709.54689 C301.030295,717.482596 301.044916,730.363537 293.109211,738.317279 C285.173505,746.27102 272.292563,746.285641 264.338822,738.349935 Z" id="Path" fill="#4C4C4C" fill-rule="nonzero"/><path d="M875.886177,316.871359 L826.499676,267.417022 C818.560402,259.466842 818.569242,246.585895 826.519421,238.646621 C834.469601,230.707347 847.350548,230.716188 855.289822,238.666367 L904.676323,288.120704 C912.615597,296.070884 912.606757,308.951831 904.656577,316.891105 C896.706398,324.830379 883.825451,324.821538 875.886177,316.871359 Z" id="Path" fill="#4C4C4C" fill-rule="nonzero"/><path d="M143.212616,264.738824 C135.258875,272.67453 122.377933,272.659909 114.442227,264.706168 C106.506522,256.752426 106.521143,243.871485 114.474884,235.935779 L250.776322,99.9434145 C258.730063,92.0077089 271.611005,92.0223297 279.546711,99.976071 C287.482416,107.929812 287.467795,120.810754 279.514054,128.74646 L143.212616,264.738824 Z" id="Path" fill="#4C4C4C" fill-rule="nonzero"/><path d="M785.713056,226.90276 L739.610946,180.90519 C731.657205,172.969484 731.642584,160.088542 739.578289,152.134801 C747.513995,144.18106 760.394937,144.166439 768.348678,152.102145 L814.450788,198.099715 C822.40453,206.035421 822.41915,218.916362 814.483445,226.870104 C806.547739,234.823845 793.666797,234.838466 785.713056,226.90276 Z" id="Path" fill="#4C4C4C" fill-rule="nonzero"/><path d="M227.713056,594.228157 L181.610946,548.230587 C173.657205,540.294881 173.642584,527.413939 181.578289,519.460198 C189.513995,511.506457 202.394937,511.491836 210.348678,519.427541 L256.450788,565.425112 C264.40453,573.360817 264.41915,586.241759 256.483445,594.1955 C248.547739,602.149242 235.666797,602.163863 227.713056,594.228157 Z" id="Path" fill="#4C4C4C" fill-rule="nonzero"/><path d="M767.087616,684.222951 C759.133875,692.158657 746.252933,692.144036 738.317227,684.190295 C730.381522,676.236553 730.396143,663.355612 738.349884,655.419906 L874.651322,519.427541 C882.605063,511.491836 895.486005,511.506457 903.421711,519.460198 C911.357416,527.413939 911.342795,540.294881 903.389054,548.230587 L767.087616,684.222951 Z" id="Path" fill="#4C4C4C" fill-rule="nonzero"/><path d="M930.136177,262.744375 L880.749676,213.290038 C872.810402,205.339858 872.819242,192.458911 880.769421,184.519637 C888.719601,176.580363 901.600548,176.589203 909.539822,184.539383 L958.926323,233.99372 C966.865597,241.9439 966.856757,254.824847 958.906577,262.764121 C950.956398,270.703395 938.075451,270.694554 930.136177,262.744375 Z" id="Path" fill="#4C4C4C" fill-rule="nonzero"/><path d="M197.462616,318.865808 C189.508875,326.801514 176.627933,326.786893 168.692227,318.833152 C160.756522,310.87941 160.771143,297.998469 168.724884,290.062763 L305.026322,154.070399 C312.980063,146.134693 325.861005,146.149314 333.796711,154.103055 C341.732416,162.056796 341.717795,174.937738 333.764054,182.873444 L197.462616,318.865808 Z" id="Path" fill="#4C4C4C" fill-rule="nonzero"/><path d="M821.337616,738.349935 C813.383875,746.285641 800.502933,746.27102 792.567227,738.317279 C784.631522,730.363537 784.646143,717.482596 792.599884,709.54689 L928.901322,573.554526 C936.855063,565.61882 949.736005,565.633441 957.671711,573.587182 C965.607416,581.540923 965.592795,594.421865 957.639054,602.357571 L821.337616,738.349935 Z" id="Path" fill="#4C4C4C" fill-rule="nonzero"/><path d="M839.963056,172.775776 L793.860946,126.778206 C785.907205,118.8425 785.892584,105.961558 793.828289,98.007817 C801.763995,90.0540757 814.644937,90.0394549 822.598678,97.9751605 L868.700788,143.972731 C876.65453,151.908436 876.66915,164.789378 868.733445,172.743119 C860.797739,180.696861 847.916797,180.711482 839.963056,172.775776 Z" id="Path" fill="#4C4C4C" fill-rule="nonzero"/><path d="M317.886177,684.196756 L268.499676,634.742419 C260.560402,626.792239 260.569242,613.911292 268.519421,605.972018 C276.469601,598.032744 289.350548,598.041584 297.289822,605.991764 L346.676323,655.446101 C354.615597,663.39628 354.606757,676.277227 346.656577,684.216502 C338.706398,692.155776 325.825451,692.146935 317.886177,684.196756 Z" id="Path" fill="#4C4C4C" fill-rule="nonzero"/></g></svg>